<?xml version="1.0" encoding="UTF-8"?>
<svg id="Layer_2" data-name="Layer 2" xmlns="http://www.w3.org/2000/svg" viewBox="0 0 217.86 120">
  <defs>
    <style>
      .cls-1 {
        stroke-width: 0px;
        fill: white;
      }
    </style>
  </defs>
  <g id="Layer_1-2" data-name="Layer 1">
    <g>
      <path class="cls-1"
        d="m49.22,36.29c1.66-.49,4.05-.75,7.11-.75,4.31,0,8.83.63,13.42,1.86,3.72,1,7.6,2.41,11.58,4.23v-4.38c-3.6-1.56-7.11-2.8-10.54-3.72-4.95-1.32-9.77-1.99-14.46-1.99-3.47,0-6.22.31-8.26.92-2.04.61-3.49,1.43-4.36,2.45s-1.3,2.14-1.3,3.37c0,1.83,1.07,3.29,3.21,4.36,2.14,1.07,4.97,1.96,8.49,2.67,3.52.72,7.4,1.48,11.63,2.3,4.23.82,8.44,1.94,12.62,3.36,1.01.35,2,.72,2.97,1.12v-4.3c-.55-.21-1.11-.41-1.67-.6-4.33-1.48-8.76-2.66-13.16-3.51-4.22-.81-8.08-1.57-11.59-2.29-3.15-.63-5.68-1.42-7.5-2.33-.7-.35-.96-.65-1-.78,0-.18.03-.4.35-.78.09-.1.62-.66,2.46-1.21Zm52.67,27.55c-2.45-4.3-5.73-7.85-9.76-10.53-2.14-1.43-4.41-2.71-6.8-3.82-1.3-.62-2.64-1.18-4-1.7-.55-.21-1.11-.41-1.67-.6-4.33-1.48-8.76-2.66-13.16-3.51-4.22-.81-8.08-1.57-11.59-2.29-3.15-.63-5.68-1.42-7.5-2.33-.7-.35-.96-.65-1-.78,0-.18.03-.4.35-.78.09-.1.62-.66,2.46-1.21,1.66-.49,4.05-.75,7.11-.75,4.31,0,8.83.63,13.42,1.86,3.72,1,7.6,2.41,11.58,4.23,1.01.45,2.03.94,3.05,1.45l.95.48,2.89,1.44,13.86-33.41-3.09-1.74c-2.23-1.25-4.57-2.39-7.02-3.4-3.35-1.4-6.91-2.56-10.64-3.49-.8-.2-1.6-.39-2.42-.57-7.29-1.58-14.78-2.39-22.27-2.39-11.53,0-21.36,1.77-29.23,5.24-8.06,3.56-14.24,8.43-18.37,14.49-4.17,6.1-6.28,12.96-6.28,20.38,0,6.38,1.25,11.85,3.72,16.26,2.45,4.37,5.73,7.94,9.77,10.63,3.79,2.53,8.02,4.59,12.56,6.12,4.37,1.48,8.77,2.68,13.09,3.57,4.17.87,8.01,1.68,11.52,2.44,3.15.69,5.67,1.52,7.48,2.47,1.07.56,1.07.9,1.06,1.14,0,0-.02.05-.11.14-.1.09-.68.57-2.52.99-1.68.39-4.13.59-7.28.59-5.52,0-11.31-.85-17.19-2.53-5.93-1.68-11.36-3.94-16.15-6.72l-3.86-2.24L0,106.59l3.01,1.82c5.73,3.46,13.05,6.29,21.77,8.42,8.64,2.1,17.71,3.17,26.96,3.17,11.64,0,21.51-1.79,29.34-5.33.08-.04.17-.08.25-.12,1.39-.63,2.72-1.3,4-2.01,5.95-3.32,10.65-7.49,14.01-12.42,4.17-6.1,6.28-12.91,6.28-20.23,0-6.28-1.26-11.68-3.73-16.05Zm-5.85,34.03c-2.66,3.89-6.22,7.23-10.71,10.02-1.26.79-2.59,1.54-4,2.23-.62.32-1.25.62-1.9.91-7.34,3.31-16.57,4.97-27.69,4.97-8.98,0-17.65-1.02-26.01-3.06-8.36-2.04-15.25-4.69-20.65-7.96l11.63-26.31c5.09,2.96,10.78,5.33,17.05,7.11,6.28,1.79,12.37,2.68,18.29,2.68,3.46,0,6.19-.23,8.18-.69,1.99-.46,3.45-1.12,4.36-1.99.92-.86,1.38-1.91,1.38-3.13,0-1.94-1.07-3.47-3.21-4.59-2.14-1.13-4.97-2.07-8.49-2.83-3.52-.77-7.37-1.58-11.56-2.45-4.18-.87-8.39-2.02-12.62-3.44-4.23-1.43-8.11-3.32-11.63-5.67-3.51-2.34-6.34-5.43-8.49-9.25-2.14-3.83-3.21-8.59-3.21-14.31,0-6.63,1.86-12.67,5.58-18.13,3.73-5.45,9.28-9.81,16.68-13.08,7.4-3.26,16.6-4.9,27.62-4.9,7.24,0,14.38.77,21.42,2.3,1.11.24,2.2.5,3.27.79,1.36.35,2.7.74,4,1.17,4.2,1.35,8.09,3.05,11.7,5.08l-10.86,26.16c-.28-.14-.56-.28-.84-.41-1.35-.66-2.68-1.28-4-1.84-3.6-1.56-7.11-2.8-10.54-3.72-4.95-1.32-9.77-1.99-14.46-1.99-3.47,0-6.22.31-8.26.92-2.04.61-3.49,1.43-4.36,2.45s-1.3,2.14-1.3,3.37c0,1.83,1.07,3.29,3.21,4.36,2.14,1.07,4.97,1.96,8.49,2.67,3.52.72,7.4,1.48,11.63,2.3,4.23.82,8.44,1.94,12.62,3.36,1.01.35,2,.72,2.97,1.12,1.37.56,2.7,1.18,4,1.85,1.59.82,3.11,1.72,4.58,2.7,3.52,2.34,6.35,5.4,8.5,9.18,2.14,3.77,3.21,8.46,3.21,14.07,0,6.53-1.86,12.52-5.58,17.98Zm-46.82-61.58c1.66-.49,4.05-.75,7.11-.75,4.31,0,8.83.63,13.42,1.86,3.72,1,7.6,2.41,11.58,4.23v-4.38c-3.6-1.56-7.11-2.8-10.54-3.72-4.95-1.32-9.77-1.99-14.46-1.99-3.47,0-6.22.31-8.26.92-2.04.61-3.49,1.43-4.36,2.45s-1.3,2.14-1.3,3.37c0,1.83,1.07,3.29,3.21,4.36,2.14,1.07,4.97,1.96,8.49,2.67,3.52.72,7.4,1.48,11.63,2.3,4.23.82,8.44,1.94,12.62,3.36,1.01.35,2,.72,2.97,1.12v-4.3c-.55-.21-1.11-.41-1.67-.6-4.33-1.48-8.76-2.66-13.16-3.51-4.22-.81-8.08-1.57-11.59-2.29-3.15-.63-5.68-1.42-7.5-2.33-.7-.35-.96-.65-1-.78,0-.18.03-.4.35-.78.09-.1.62-.66,2.46-1.21Z" />
      <path class="cls-1"
        d="m217.86,117.55h-40.88l-.21-38.42-17.1,28.78h-20.42l-17.03-27.47v37.11h-40.89v-7.43c1.41-.69,2.74-1.44,4-2.23,4.49-2.79,8.05-6.13,10.71-10.02,3.72-5.46,5.58-11.45,5.58-17.98,0-5.61-1.07-10.3-3.21-14.07-2.15-3.78-4.98-6.84-8.5-9.18-1.47-.98-2.99-1.88-4.58-2.7-1.3-.67-2.63-1.29-4-1.85v-4.3c1.36.52,2.7,1.08,4,1.7,2.39,1.11,4.66,2.39,6.8,3.82,4.03,2.68,7.31,6.23,9.76,10.53,2.47,4.37,3.73,9.77,3.73,16.05,0,7.32-2.11,14.13-6.28,20.23-3.36,4.93-8.06,9.1-14.01,12.42v1.01h32.89v-47.17l23.26,37.53h15.91l23.31-39.22.25,48.86h32.9l-.31-107.1h-29.68l-33.92,57L115.01,6.45h-23.04c2.45,1.01,4.79,2.15,7.02,3.4l3.09,1.74-13.86,33.41-2.89-1.44-.95-.48c-1.02-.51-2.04-1-3.05-1.45v-4.38c1.32.56,2.65,1.18,4,1.84.28.13.56.27.84.41l10.86-26.16c-3.61-2.03-7.5-3.73-11.7-5.08-1.3-.43-2.64-.82-4-1.17V2.45h35.92l32.64,53.26L181.59,2.45h35.94l.33,115.1Z" />
      <path class="cls-1"
        d="m101.89,63.84c-2.45-4.3-5.73-7.85-9.76-10.53-2.14-1.43-4.41-2.71-6.8-3.82v4.45c1.59.82,3.11,1.72,4.58,2.7,3.52,2.34,6.35,5.4,8.5,9.18,2.14,3.77,3.21,8.46,3.21,14.07,0,6.53-1.86,12.52-5.58,17.98-2.66,3.89-6.22,7.23-10.71,10.02v4.65c5.95-3.32,10.65-7.49,14.01-12.42,4.17-6.1,6.28-12.91,6.28-20.23,0-6.28-1.26-11.68-3.73-16.05Zm.19-52.25l-3.09-1.74c-2.23-1.25-4.57-2.39-7.02-3.4h-6.64v1.81c4.2,1.35,8.09,3.05,11.7,5.08l-10.86,26.16c-.28-.14-.56-.28-.84-.41v4.47l2.89,1.44,13.86-33.41Z" />
    </g>
  </g>
</svg>